<mxfile host="app.diagrams.net" modified="2023-05-17T06:31:43.693Z" agent="Mozilla/5.0 (Windows NT 10.0; Win64; x64) AppleWebKit/537.36 (KHTML, like Gecko) Chrome/113.0.0.0 Safari/537.36" etag="z3ww3OLrmzizF24t2Y25" version="21.3.2" type="github">
  <diagram name="Page-1" id="cDdMqPbO0NjChHjkCC8m">
    <mxGraphModel dx="1461" dy="676" grid="1" gridSize="10" guides="1" tooltips="1" connect="1" arrows="1" fold="1" page="1" pageScale="1" pageWidth="850" pageHeight="1100" math="0" shadow="0">
      <root>
        <mxCell id="0" />
        <mxCell id="1" parent="0" />
        <mxCell id="imbKpkbCnUbnrznE_cFk-4" style="edgeStyle=orthogonalEdgeStyle;rounded=0;orthogonalLoop=1;jettySize=auto;html=1;exitX=1;exitY=0.5;exitDx=0;exitDy=0;entryX=0;entryY=0.5;entryDx=0;entryDy=0;endArrow=none;endFill=0;" edge="1" parent="1" source="imbKpkbCnUbnrznE_cFk-1" target="imbKpkbCnUbnrznE_cFk-2">
          <mxGeometry relative="1" as="geometry" />
        </mxCell>
        <mxCell id="imbKpkbCnUbnrznE_cFk-14" style="edgeStyle=orthogonalEdgeStyle;rounded=0;orthogonalLoop=1;jettySize=auto;html=1;exitX=0.5;exitY=1;exitDx=0;exitDy=0;endArrow=none;endFill=0;" edge="1" parent="1" source="imbKpkbCnUbnrznE_cFk-1" target="imbKpkbCnUbnrznE_cFk-12">
          <mxGeometry relative="1" as="geometry" />
        </mxCell>
        <mxCell id="imbKpkbCnUbnrznE_cFk-30" style="rounded=0;orthogonalLoop=1;jettySize=auto;html=1;entryX=1;entryY=0.5;entryDx=0;entryDy=0;endArrow=none;endFill=0;" edge="1" parent="1" source="imbKpkbCnUbnrznE_cFk-1" target="imbKpkbCnUbnrznE_cFk-29">
          <mxGeometry relative="1" as="geometry" />
        </mxCell>
        <mxCell id="imbKpkbCnUbnrznE_cFk-31" style="rounded=0;orthogonalLoop=1;jettySize=auto;html=1;entryX=1;entryY=0.5;entryDx=0;entryDy=0;endArrow=none;endFill=0;" edge="1" parent="1" source="imbKpkbCnUbnrznE_cFk-1" target="imbKpkbCnUbnrznE_cFk-28">
          <mxGeometry relative="1" as="geometry" />
        </mxCell>
        <mxCell id="imbKpkbCnUbnrznE_cFk-32" style="rounded=0;orthogonalLoop=1;jettySize=auto;html=1;entryX=0.5;entryY=1;entryDx=0;entryDy=0;endArrow=none;endFill=0;" edge="1" parent="1" source="imbKpkbCnUbnrznE_cFk-1" target="imbKpkbCnUbnrznE_cFk-27">
          <mxGeometry relative="1" as="geometry" />
        </mxCell>
        <mxCell id="imbKpkbCnUbnrznE_cFk-34" style="rounded=0;orthogonalLoop=1;jettySize=auto;html=1;exitX=0.25;exitY=0;exitDx=0;exitDy=0;endArrow=none;endFill=0;" edge="1" parent="1" source="imbKpkbCnUbnrznE_cFk-1">
          <mxGeometry relative="1" as="geometry">
            <mxPoint x="90" y="130" as="targetPoint" />
          </mxGeometry>
        </mxCell>
        <mxCell id="imbKpkbCnUbnrznE_cFk-1" value="读者" style="rounded=0;whiteSpace=wrap;html=1;" vertex="1" parent="1">
          <mxGeometry x="130" y="180" width="80" height="40" as="geometry" />
        </mxCell>
        <mxCell id="imbKpkbCnUbnrznE_cFk-10" style="edgeStyle=orthogonalEdgeStyle;rounded=0;orthogonalLoop=1;jettySize=auto;html=1;exitX=1;exitY=0.5;exitDx=0;exitDy=0;endArrow=none;endFill=0;" edge="1" parent="1" source="imbKpkbCnUbnrznE_cFk-2" target="imbKpkbCnUbnrznE_cFk-3">
          <mxGeometry relative="1" as="geometry" />
        </mxCell>
        <mxCell id="imbKpkbCnUbnrznE_cFk-2" value="浏览" style="rhombus;whiteSpace=wrap;html=1;" vertex="1" parent="1">
          <mxGeometry x="280" y="180" width="80" height="40" as="geometry" />
        </mxCell>
        <mxCell id="imbKpkbCnUbnrznE_cFk-3" value="图书" style="rounded=0;whiteSpace=wrap;html=1;" vertex="1" parent="1">
          <mxGeometry x="425" y="180" width="80" height="40" as="geometry" />
        </mxCell>
        <mxCell id="imbKpkbCnUbnrznE_cFk-6" value="m" style="text;html=1;strokeColor=none;fillColor=none;align=center;verticalAlign=middle;whiteSpace=wrap;rounded=0;" vertex="1" parent="1">
          <mxGeometry x="220" y="180" width="60" height="30" as="geometry" />
        </mxCell>
        <mxCell id="imbKpkbCnUbnrznE_cFk-11" value="n" style="text;html=1;strokeColor=none;fillColor=none;align=center;verticalAlign=middle;whiteSpace=wrap;rounded=0;" vertex="1" parent="1">
          <mxGeometry x="360" y="180" width="60" height="30" as="geometry" />
        </mxCell>
        <mxCell id="imbKpkbCnUbnrznE_cFk-15" style="edgeStyle=orthogonalEdgeStyle;rounded=0;orthogonalLoop=1;jettySize=auto;html=1;exitX=0.5;exitY=1;exitDx=0;exitDy=0;entryX=0.5;entryY=0;entryDx=0;entryDy=0;endArrow=none;endFill=0;" edge="1" parent="1" source="imbKpkbCnUbnrznE_cFk-12" target="imbKpkbCnUbnrznE_cFk-13">
          <mxGeometry relative="1" as="geometry" />
        </mxCell>
        <mxCell id="imbKpkbCnUbnrznE_cFk-12" value="评分" style="rhombus;whiteSpace=wrap;html=1;" vertex="1" parent="1">
          <mxGeometry x="130" y="290" width="80" height="40" as="geometry" />
        </mxCell>
        <mxCell id="imbKpkbCnUbnrznE_cFk-20" style="edgeStyle=orthogonalEdgeStyle;rounded=0;orthogonalLoop=1;jettySize=auto;html=1;exitX=1;exitY=0.5;exitDx=0;exitDy=0;entryX=0;entryY=0.5;entryDx=0;entryDy=0;endArrow=none;endFill=0;" edge="1" parent="1" source="imbKpkbCnUbnrznE_cFk-13" target="imbKpkbCnUbnrznE_cFk-16">
          <mxGeometry relative="1" as="geometry" />
        </mxCell>
        <mxCell id="imbKpkbCnUbnrznE_cFk-13" value="评分表" style="rounded=0;whiteSpace=wrap;html=1;" vertex="1" parent="1">
          <mxGeometry x="130" y="410" width="80" height="40" as="geometry" />
        </mxCell>
        <mxCell id="imbKpkbCnUbnrznE_cFk-21" style="edgeStyle=orthogonalEdgeStyle;rounded=0;orthogonalLoop=1;jettySize=auto;html=1;entryX=0;entryY=0.5;entryDx=0;entryDy=0;endArrow=none;endFill=0;" edge="1" parent="1" source="imbKpkbCnUbnrznE_cFk-16" target="imbKpkbCnUbnrznE_cFk-18">
          <mxGeometry relative="1" as="geometry" />
        </mxCell>
        <mxCell id="imbKpkbCnUbnrznE_cFk-16" value="计算" style="rhombus;whiteSpace=wrap;html=1;" vertex="1" parent="1">
          <mxGeometry x="280" y="410" width="80" height="40" as="geometry" />
        </mxCell>
        <mxCell id="imbKpkbCnUbnrznE_cFk-18" value="推荐表" style="rounded=0;whiteSpace=wrap;html=1;" vertex="1" parent="1">
          <mxGeometry x="425" y="410" width="80" height="40" as="geometry" />
        </mxCell>
        <mxCell id="imbKpkbCnUbnrznE_cFk-22" value="n" style="text;html=1;strokeColor=none;fillColor=none;align=center;verticalAlign=middle;whiteSpace=wrap;rounded=0;" vertex="1" parent="1">
          <mxGeometry x="130" y="230" width="60" height="70" as="geometry" />
        </mxCell>
        <mxCell id="imbKpkbCnUbnrznE_cFk-23" value="1" style="text;html=1;strokeColor=none;fillColor=none;align=center;verticalAlign=middle;whiteSpace=wrap;rounded=0;" vertex="1" parent="1">
          <mxGeometry x="120" y="340" width="60" height="70" as="geometry" />
        </mxCell>
        <mxCell id="imbKpkbCnUbnrznE_cFk-24" value="1" style="text;html=1;strokeColor=none;fillColor=none;align=center;verticalAlign=middle;whiteSpace=wrap;rounded=0;" vertex="1" parent="1">
          <mxGeometry x="220" y="410" width="60" height="70" as="geometry" />
        </mxCell>
        <mxCell id="imbKpkbCnUbnrznE_cFk-25" value="n" style="text;html=1;strokeColor=none;fillColor=none;align=center;verticalAlign=middle;whiteSpace=wrap;rounded=0;" vertex="1" parent="1">
          <mxGeometry x="360" y="410" width="60" height="70" as="geometry" />
        </mxCell>
        <mxCell id="imbKpkbCnUbnrznE_cFk-26" value="读者ID" style="ellipse;whiteSpace=wrap;html=1;" vertex="1" parent="1">
          <mxGeometry x="20" y="100" width="80" height="40" as="geometry" />
        </mxCell>
        <mxCell id="imbKpkbCnUbnrznE_cFk-27" value="读者名字" style="ellipse;whiteSpace=wrap;html=1;" vertex="1" parent="1">
          <mxGeometry x="130" y="100" width="80" height="40" as="geometry" />
        </mxCell>
        <mxCell id="imbKpkbCnUbnrznE_cFk-28" value="登录密码" style="ellipse;whiteSpace=wrap;html=1;" vertex="1" parent="1">
          <mxGeometry x="10" y="160" width="80" height="40" as="geometry" />
        </mxCell>
        <mxCell id="imbKpkbCnUbnrznE_cFk-29" value="创建时间" style="ellipse;whiteSpace=wrap;html=1;" vertex="1" parent="1">
          <mxGeometry y="210" width="80" height="40" as="geometry" />
        </mxCell>
        <mxCell id="imbKpkbCnUbnrznE_cFk-35" value="图书ID" style="ellipse;whiteSpace=wrap;html=1;" vertex="1" parent="1">
          <mxGeometry x="420" y="110" width="80" height="40" as="geometry" />
        </mxCell>
        <mxCell id="imbKpkbCnUbnrznE_cFk-36" value="图书名" style="ellipse;whiteSpace=wrap;html=1;" vertex="1" parent="1">
          <mxGeometry x="530" y="130" width="80" height="40" as="geometry" />
        </mxCell>
        <mxCell id="imbKpkbCnUbnrznE_cFk-37" value="标签" style="ellipse;whiteSpace=wrap;html=1;" vertex="1" parent="1">
          <mxGeometry x="560" y="180" width="80" height="40" as="geometry" />
        </mxCell>
        <mxCell id="imbKpkbCnUbnrznE_cFk-38" value="评分" style="ellipse;whiteSpace=wrap;html=1;" vertex="1" parent="1">
          <mxGeometry x="570" y="230" width="80" height="40" as="geometry" />
        </mxCell>
        <mxCell id="imbKpkbCnUbnrznE_cFk-39" value="图书图片" style="ellipse;whiteSpace=wrap;html=1;" vertex="1" parent="1">
          <mxGeometry x="550" y="280" width="80" height="40" as="geometry" />
        </mxCell>
      </root>
    </mxGraphModel>
  </diagram>
</mxfile>
